<?xml version="1.0" encoding="utf-8"?>
<!-- Generator: Adobe Illustrator 16.0.0, SVG Export Plug-In . SVG Version: 6.00 Build 0)  -->
<!DOCTYPE svg PUBLIC "-//W3C//DTD SVG 1.0//EN" "http://www.w3.org/TR/2001/REC-SVG-20010904/DTD/svg10.dtd">
<svg version="1.0" id="Laag_1" xmlns="http://www.w3.org/2000/svg" xmlns:xlink="http://www.w3.org/1999/xlink" x="0px" y="0px"
	 width="32px" height="32px" viewBox="0 0 32 32" enable-background="new 0 0 32 32" xml:space="preserve">
<path fill="#1D1D1B" d="M25.501,15.972C28.785,14.861,31,12.793,31,10.419C31,6.874,26.072,4,19.995,4
	C13.917,4,8.99,6.874,8.99,10.419s4.927,6.419,11.005,6.419c1.003,0,1.971-0.085,2.895-0.232c0.69,3.954,3.888,7.133,8.051,8.141
	C27.711,23.036,25.521,19.751,25.501,15.972z"/>
<path fill="#1D1D1B" d="M8.081,10.517c-4.183,0.468-7.344,2.611-7.344,5.187c0,1.955,1.823,3.658,4.526,4.571
	C4,23,2.659,24.216,0,25.625C5,25,6,23,7.413,20.798c0.761,0.12,1.557,0.19,2.383,0.19c3.813,0,7.069-1.375,8.405-3.32
	C12.451,17.153,8.157,14.208,8.081,10.517z"/>
</svg>
