<?xml version="1.0" encoding="utf-8"?>
<!-- Generator: Adobe Illustrator 20.1.0, SVG Export Plug-In . SVG Version: 6.00 Build 0)  -->
<svg version="1.1" id="Laag_1" xmlns="http://www.w3.org/2000/svg" xmlns:xlink="http://www.w3.org/1999/xlink" x="0px" y="0px"
	 viewBox="0 0 28 28" style="enable-background:new 0 0 28 28;" xml:space="preserve">
<style type="text/css">
	.st0{fill:#5D5F60;}
	.st1{fill:#FFFFFF;}
</style>
<rect y="0" class="st0" width="28" height="28"/>
<path class="st1" d="M15.6,0.8c-3.2,0-5.8,2.6-5.8,5.8v12.3c0,2.3,1.8,4.1,4.1,4.1s4.1-1.8,4.1-4.1V6.6h-2.5v12.3
	c0,0.9-0.7,1.6-1.6,1.6s-1.6-0.7-1.6-1.6V6.6c0-1.8,1.5-3.3,3.3-3.3c1.8,0,3.3,1.5,3.3,3.3v13.2c0,2.7-2.2,4.9-4.9,4.9
	s-4.9-2.2-4.9-4.9V2.5H6.6v17.3c0,4.1,3.3,7.4,7.4,7.4c4.1,0,7.4-3.3,7.4-7.4V6.6C21.4,3.4,18.8,0.8,15.6,0.8z"/>
</svg>
