<?xml version="1.0" encoding="utf-8"?>
<!-- Generator: Adobe Illustrator 20.1.0, SVG Export Plug-In . SVG Version: 6.00 Build 0)  -->
<svg version="1.1" id="Laag_1" xmlns="http://www.w3.org/2000/svg" xmlns:xlink="http://www.w3.org/1999/xlink" x="0px" y="0px"
	 viewBox="0 0 28 28" style="enable-background:new 0 0 28 28;" xml:space="preserve">
<style type="text/css">
	.st0{fill:#5D5F60;}
	.st1{fill:#FFFFFF;}
</style>
<rect y="0" class="st0" width="28" height="28"/>
<path class="st1" d="M23.5,10.1c-0.5-0.7-1.2-1.5-2-2.3c-0.8-0.8-1.6-1.5-2.3-2c-1.2-0.9-1.8-1-2.1-1H8.5c-1,0-1.9,0.8-1.9,1.9v17.1
	c0,1,0.8,1.9,1.9,1.9h14.2c1,0,1.9-0.8,1.9-1.9V12.3C24.5,11.9,24.4,11.3,23.5,10.1z M20.4,8.9c0.7,0.7,1.3,1.4,1.7,1.9h-3.6V7.2
	C19.1,7.6,19.7,8.2,20.4,8.9L20.4,8.9L20.4,8.9z M23,23.8c0,0.2-0.2,0.4-0.4,0.4H8.5c-0.2,0-0.4-0.2-0.4-0.4V6.7
	c0-0.2,0.2-0.4,0.4-0.4c0,0,8.6,0,8.6,0v5.2c0,0.4,0.3,0.7,0.7,0.7H23V23.8z"/>
<path class="st1" d="M15.7,3.1c-1.2-0.9-1.8-1-2.1-1H5C4,2.1,3.1,2.9,3.1,4v17.1c0,0.9,0.6,1.7,1.5,1.8V4c0-0.2,0.2-0.4,0.4-0.4
	h11.3C16.1,3.4,15.9,3.2,15.7,3.1L15.7,3.1z"/>
</svg>
