<?xml version="1.0" encoding="utf-8"?>
<!-- Generator: Adobe Illustrator 20.1.0, SVG Export Plug-In . SVG Version: 6.00 Build 0)  -->
<svg version="1.1" id="Laag_1" xmlns="http://www.w3.org/2000/svg" xmlns:xlink="http://www.w3.org/1999/xlink" x="0px" y="0px"
	 viewBox="0 0 28 28" style="enable-background:new 0 0 28 28;" xml:space="preserve">
<style type="text/css">
	.st0{fill:#5E6061;}
	.st1{fill:#FFFFFF;}
</style>
<rect x="0" y="0" class="st0" width="28" height="28"/>
<path class="st1" d="M2.2,9.2v16.1c0,1.2,1,2.2,2.1,2.2h19.3c1.2,0,2.1-1,2.1-2.2V9.2H2.2z M8.1,25.8H3.8v-4.3h4.3V25.8z M8.1,20.4
	H3.8v-4.3h4.3V20.4z M8.1,15.1H3.8v-4.3h4.3V15.1z M13.5,25.8H9.2v-4.3h4.3V25.8z M13.5,20.4H9.2v-4.3h4.3V20.4z M13.5,15.1H9.2
	v-4.3h4.3V15.1z M18.8,25.8h-4.3v-4.3h4.3V25.8z M18.8,20.4h-4.3v-4.3h4.3V20.4z M18.8,15.1h-4.3v-4.3h4.3V15.1z M24.2,25.8h-4.3
	v-4.3h4.3V25.8z M24.2,20.4h-4.3v-4.3h4.3V20.4z M24.2,15.1h-4.3v-4.3h4.3V15.1z"/>
<path class="st1" d="M23.7,3.8h-3.5V1.4c0-0.4-0.4-0.8-0.8-0.8c-0.4,0-0.8,0.4-0.8,0.8v2.4H9.4V1.4c0-0.4-0.4-0.8-0.8-0.8
	c-0.4,0-0.8,0.4-0.8,0.8v2.4H4.3c-1.2,0-2.1,1-2.1,2.2v1.9l0,0v0.3h23.6V7.8l0,0V6C25.8,4.8,24.8,3.8,23.7,3.8z M8.6,7.6
	C7.7,7.6,7,6.8,7,5.9c0-0.6,0.3-1.1,0.8-1.4v1.4c0,0.4,0.4,0.8,0.8,0.8c0.4,0,0.8-0.4,0.8-0.8V4.6c0.5,0.3,0.8,0.8,0.8,1.4
	C10.2,6.8,9.5,7.6,8.6,7.6z M19.4,7.6c-0.9,0-1.6-0.7-1.6-1.6c0-0.6,0.3-1.1,0.8-1.4v1.4c0,0.4,0.4,0.8,0.8,0.8
	c0.4,0,0.8-0.4,0.8-0.8V4.6C20.7,4.8,21,5.4,21,5.9C21,6.8,20.3,7.6,19.4,7.6z"/>
</svg>
