<?xml version="1.0" encoding="utf-8"?>
<!-- Generator: Adobe Illustrator 20.1.0, SVG Export Plug-In . SVG Version: 6.00 Build 0)  -->
<svg version="1.1" id="Laag_1" xmlns="http://www.w3.org/2000/svg" xmlns:xlink="http://www.w3.org/1999/xlink" x="0px" y="0px"
	 viewBox="0 0 28 28" style="enable-background:new 0 0 28 28;" xml:space="preserve">
<style type="text/css">
	.st0{fill:#5D5F60;}
	.st1{fill:#FFFFFF;}
</style>
<rect class="st0" width="28" height="28"/>
<path class="st1" d="M23.6,26.8c-0.4,0-0.8-0.2-1.1-0.5l-7.7-8.9c-1.4,0.9-3,1.3-4.6,1.3c-4.8,0-8.8-3.9-8.8-8.8s3.9-8.8,8.8-8.8
	S19,5.1,19,9.9c0,1.9-0.6,3.7-1.7,5.2l8.8,7.6c0.3,0.3,0.5,0.7,0.5,1.1c0,0.4-0.1,0.8-0.4,1.1l-1.5,1.5C24.4,26.7,24,26.8,23.6,26.8
	L23.6,26.8z M10.2,4.2C7,4.2,4.5,6.8,4.5,9.9s2.6,5.8,5.8,5.8S16,13.1,16,9.9S13.4,4.2,10.2,4.2z"/>
<path class="st1" d="M10.9,13.8c-2.5,0-4.6-2.1-4.6-4.6c0-1.1,0.4-2,1-2.8c-1.1,0.8-1.8,2.2-1.8,3.6c0,2.5,2.1,4.6,4.6,4.6
	c1.5,0,2.8-0.7,3.6-1.8C13,13.5,12,13.8,10.9,13.8z"/>
</svg>
