<?xml version="1.0" encoding="utf-8"?>
<!-- Generator: Adobe Illustrator 20.1.0, SVG Export Plug-In . SVG Version: 6.00 Build 0)  -->
<svg version="1.1" id="Laag_1" xmlns="http://www.w3.org/2000/svg" xmlns:xlink="http://www.w3.org/1999/xlink" x="0px" y="0px"
	 viewBox="0 0 28 28" style="enable-background:new 0 0 28 28;" xml:space="preserve">
<style type="text/css">
	.st0{fill:#5D5F60;}
	.st1{fill:#FFFFFF;}
</style>
<rect y="0" class="st0" width="28" height="28"/>
<g>
	<path class="st1" d="M19.4,8.9c-0.5-0.6-1.1-1.3-1.8-2c-0.7-0.7-1.4-1.3-2-1.8c-1.1-0.8-1.6-0.9-1.9-0.9H6.2
		c-0.9,0-1.6,0.7-1.6,1.6v15c0,0.9,0.7,1.6,1.6,1.6h12.4c0.9,0,1.6-0.7,1.6-1.6V10.7C20.3,10.5,20.2,9.9,19.4,8.9z M16.7,7.8
		c0.6,0.6,1.1,1.2,1.5,1.7h-3.1V6.3C15.5,6.7,16.1,7.1,16.7,7.8L16.7,7.8L16.7,7.8z M19,20.9c0,0.2-0.1,0.3-0.3,0.3H6.2
		c-0.2,0-0.3-0.1-0.3-0.3v-15c0-0.2,0.1-0.3,0.3-0.3c0,0,7.5,0,7.5,0v4.6c0,0.4,0.3,0.7,0.7,0.7H19V20.9z"/>
	<path class="st1" d="M13,2.5c-1.1-0.8-1.6-0.9-1.9-0.9H3.6C2.7,1.6,2,2.3,2,3.2v15c0,0.8,0.6,1.4,1.3,1.6V3.2
		c0-0.2,0.2-0.3,0.3-0.3h9.9C13.4,2.7,13.2,2.6,13,2.5L13,2.5z"/>
</g>
<circle class="st0" cx="13.7" cy="13.1" r="4.5"/>
<g>
	<path class="st1" d="M24.1,26.2c-0.3,0-0.6-0.1-0.9-0.4l-6-6.9c-1.1,0.7-2.3,1-3.6,1c-3.8,0-6.8-3.1-6.8-6.8s3.1-6.8,6.8-6.8
		s6.8,3.1,6.8,6.8c0,1.5-0.5,2.9-1.3,4L26,23c0.2,0.2,0.4,0.5,0.4,0.8c0,0.3-0.1,0.6-0.3,0.9l-1.1,1.1
		C24.7,26.1,24.4,26.2,24.1,26.2L24.1,26.2z M13.7,8.6c-2.5,0-4.5,2-4.5,4.5s2,4.5,4.5,4.5s4.5-2,4.5-4.5S16.2,8.6,13.7,8.6z"/>
	<path class="st1" d="M14.3,16.1c-2,0-3.6-1.6-3.6-3.6c0-0.8,0.3-1.6,0.7-2.2c-0.8,0.7-1.4,1.7-1.4,2.8c0,2,1.6,3.6,3.6,3.6
		c1.1,0,2.2-0.5,2.8-1.4C15.8,15.8,15.1,16.1,14.3,16.1z"/>
</g>
</svg>
