<?xml version="1.0" encoding="utf-8"?>
<!-- Generator: Adobe Illustrator 20.1.0, SVG Export Plug-In . SVG Version: 6.00 Build 0)  -->
<svg version="1.1" id="Laag_1" xmlns="http://www.w3.org/2000/svg" xmlns:xlink="http://www.w3.org/1999/xlink" x="0px" y="0px"
	 viewBox="0 0 28 28" style="enable-background:new 0 0 28 28;" xml:space="preserve">
<style type="text/css">
	.st0{fill:#5E6061;}
	.st1{fill:#FFFFFF;}
</style>
<rect class="st0" width="28.2" height="28.2"/>
<g>
	<g>
		<rect x="6.4" y="15.6" class="st1" width="6.7" height="1.1"/>
		<rect x="6.4" y="17.7" class="st1" width="4.1" height="1.1"/>
		<rect x="11" y="17.7" class="st1" width="3.2" height="1.1"/>
		<rect x="6.4" y="19.9" class="st1" width="1.6" height="1.1"/>
		<rect x="8.3" y="19.9" class="st1" width="2.5" height="1.1"/>
		<rect x="6.4" y="22" class="st1" width="2.5" height="1.1"/>
		<rect x="9.2" y="22" class="st1" width="3.6" height="1.1"/>
	</g>
	<rect x="15.1" y="5.4" class="st1" width="6.7" height="1.1"/>
	<rect x="15.1" y="7.5" class="st1" width="2.5" height="1.1"/>
	<rect x="18.1" y="7.5" class="st1" width="2.8" height="1.1"/>
	<rect x="15.1" y="9.6" class="st1" width="1.6" height="1.1"/>
	<rect x="17" y="9.6" class="st1" width="2.5" height="1.1"/>
	<rect x="19.9" y="9.6" class="st1" width="2.5" height="1.1"/>
	<rect x="15.1" y="11.8" class="st1" width="2.5" height="1.1"/>
	<rect x="17.9" y="11.8" class="st1" width="3.6" height="1.1"/>
	<path class="st1" d="M3.4,1.7v24.9h21V1.7H3.4z M23.3,25.5H4.4V2.7h18.8V25.5z"/>
	<rect x="6.4" y="5.4" class="st1" width="6.4" height="6.4"/>
	<rect x="15.1" y="15.6" class="st1" width="6.4" height="6.4"/>
</g>
</svg>
