<?xml version="1.0" encoding="utf-8"?>
<!-- Generator: Adobe Illustrator 20.1.0, SVG Export Plug-In . SVG Version: 6.00 Build 0)  -->
<svg version="1.1" id="Laag_1" xmlns="http://www.w3.org/2000/svg" xmlns:xlink="http://www.w3.org/1999/xlink" x="0px" y="0px"
	 viewBox="0 0 28 28" style="enable-background:new 0 0 28 28;" xml:space="preserve">
<style type="text/css">
	.st0{fill:#5D5F60;}
	.st1{fill:#FFFFFF;}
</style>
<rect class="st0" width="28" height="28"/>
<path class="st1" d="M10.5,18.9l1-1.3l-1.1-1.1l-1.3,1c-0.3-0.1-0.5-0.3-0.8-0.3L8,15.5H6.6l-0.3,1.6c-0.3,0.1-0.5,0.2-0.8,0.3
	l-1.3-1l-1.1,1.1l1,1.3c-0.1,0.3-0.3,0.5-0.3,0.8L2.1,20v1.5l1.6,0.3C3.8,22,3.9,22.3,4,22.5l-1,1.3l1.1,1.1l1.3-1
	c0.3,0.1,0.5,0.3,0.8,0.3l0.3,1.6H8l0.3-1.6c0.3-0.1,0.5-0.2,0.8-0.3l1.3,1l1.1-1.1l-1-1.3c0.1-0.3,0.3-0.5,0.3-0.8l1.6-0.3V20
	l-1.6-0.3C10.8,19.4,10.7,19.1,10.5,18.9L10.5,18.9z M7.3,22.2c-0.8,0-1.5-0.7-1.5-1.5s0.7-1.5,1.5-1.5s1.5,0.7,1.5,1.5
	S8.1,22.2,7.3,22.2z M25.9,11V9.5l-1.6-0.3c0-0.2-0.1-0.4-0.1-0.6l1.3-0.9L25,6.5l-1.6,0.3c-0.1-0.2-0.2-0.3-0.3-0.5L24,5L23,4
	l-1.3,0.9c-0.2-0.1-0.3-0.2-0.5-0.3L21.5,3l-1.4-0.6l-0.9,1.3c-0.2,0-0.4-0.1-0.6-0.1l-0.3-1.6H17l-0.3,1.6c-0.2,0-0.4,0.1-0.6,0.1
	l-0.9-1.3L13.9,3l0.3,1.6c-0.2,0.1-0.3,0.2-0.5,0.3L12.5,4L11.4,5l0.9,1.3c-0.1,0.2-0.2,0.3-0.3,0.5l-1.6-0.3L9.9,7.8l1.3,0.9
	c0,0.2-0.1,0.4-0.1,0.6L9.5,9.5V11l1.6,0.3c0,0.2,0.1,0.4,0.1,0.6l-1.3,0.9l0.6,1.4l1.6-0.3c0.1,0.2,0.2,0.3,0.3,0.5l-0.9,1.3
	l1.1,1.1l1.3-0.9c0.2,0.1,0.3,0.2,0.5,0.3l-0.3,1.6l1.4,0.6l0.9-1.3c0.2,0,0.4,0.1,0.6,0.1l0.3,1.6h1.5l0.3-1.6
	c0.2,0,0.4-0.1,0.6-0.1l0.9,1.3l1.4-0.6L21.2,16c0.2-0.1,0.3-0.2,0.5-0.3l1.3,0.9l1.1-1.1l-0.9-1.3c0.1-0.2,0.2-0.3,0.3-0.5l1.6,0.3
	l0.6-1.4l-1.3-0.9c0-0.2,0.1-0.4,0.1-0.6C24.3,11.3,25.9,11,25.9,11z M17.7,13.5c-1.8,0-3.2-1.5-3.2-3.2S15.9,7,17.7,7
	S21,8.5,21,10.3S19.5,13.5,17.7,13.5z"/>
</svg>
