<?xml version="1.0" encoding="utf-8"?>
<!-- Generator: Adobe Illustrator 20.1.0, SVG Export Plug-In . SVG Version: 6.00 Build 0)  -->
<svg version="1.1" id="Laag_1" xmlns="http://www.w3.org/2000/svg" xmlns:xlink="http://www.w3.org/1999/xlink" x="0px" y="0px"
	 viewBox="0 0 28 28" style="enable-background:new 0 0 28 28;" xml:space="preserve">
<style type="text/css">
	.st0{fill:#5E6061;}
	.st1{fill:#FFFFFF;}
</style>
<rect class="st0" width="28.2" height="28.2"/>
<path class="st1" d="M12,3.4L12,3.4c5.5,0,9.9,3.6,9.9,8s-4.5,8-9.9,8c-0.5,0-1,0-1.6-0.1c-2.1,2.1-4.6,2.5-7.1,2.6v-0.5
	c1.3-0.6,2.4-1.8,2.4-3.2c0-0.2,0-0.4,0-0.6c-2.2-1.5-3.7-3.7-3.7-6.3C2.1,7,6.5,3.4,12,3.4L12,3.4z M22.7,21.4
	c0,1.2,0.8,2.2,1.9,2.7v0.4c-2.1,0-4.1-0.4-6-2.2c-0.4,0.1-0.9,0.1-1.3,0.1c-2,0-3.8-0.5-5.3-1.4c3,0,5.8-1,8-2.7
	c1.1-0.9,1.9-1.9,2.5-3.1c0.6-1.2,1-2.5,1-3.9c0-0.2,0-0.4,0-0.6c1.5,1.2,2.4,2.9,2.4,4.8c0,2.2-1.2,4.1-3.2,5.4
	C22.7,21.1,22.7,21.3,22.7,21.4z"/>
</svg>
