<?xml version="1.0" encoding="utf-8"?>
<!-- Generator: Adobe Illustrator 16.0.0, SVG Export Plug-In . SVG Version: 6.00 Build 0)  -->
<!DOCTYPE svg PUBLIC "-//W3C//DTD SVG 1.0//EN" "http://www.w3.org/TR/2001/REC-SVG-20010904/DTD/svg10.dtd">
<svg version="1.0" id="Laag_1" xmlns="http://www.w3.org/2000/svg" xmlns:xlink="http://www.w3.org/1999/xlink" x="0px" y="0px"
	 width="32px" height="32px" viewBox="0 0 32 32" enable-background="new 0 0 32 32" xml:space="preserve">
<g>
	<path fill="#3C3C3C" d="M28.692,2C29.328,2,30,2.671,30,3.308v25.385C30,29.328,29.328,30,28.692,30H3.308
		C2.671,30,2,29.328,2,28.692V3.308C2,2.671,2.671,2,3.308,2H29 M28.692,1H3.308C2.039,1,1,2.039,1,3.308v25.385
		C1,29.962,2.039,31,3.308,31h25.385C29.962,31,31,29.962,31,28.692V3.308C31,2.039,29.962,1,28.692,1L28.692,1z"/>
</g>
<rect x="4" y="14" fill="#3C3C3C" width="24" height="4"/>
<rect x="14" y="4" fill="#3C3C3C" width="4" height="24"/>
</svg>
