<?xml version="1.0" encoding="utf-8"?>
<!-- Generator: Adobe Illustrator 16.0.0, SVG Export Plug-In . SVG Version: 6.00 Build 0)  -->
<!DOCTYPE svg PUBLIC "-//W3C//DTD SVG 1.0//EN" "http://www.w3.org/TR/2001/REC-SVG-20010904/DTD/svg10.dtd">
<svg version="1.0" id="Laag_1" xmlns="http://www.w3.org/2000/svg" xmlns:xlink="http://www.w3.org/1999/xlink" x="0px" y="0px"
	 width="32px" height="32px" viewBox="0 0 32 32" enable-background="new 0 0 32 32" xml:space="preserve">
<g>
	<path fill="#1D1D1B" d="M25.625,28.842c-0.43,0-0.839-0.188-1.122-0.518l-7.7-8.884c-1.382,0.854-2.952,1.302-4.593,1.302
		c-4.848,0-8.792-3.944-8.792-8.792s3.944-8.792,8.792-8.792c4.848,0,8.792,3.944,8.792,8.792c0,1.887-0.603,3.7-1.714,5.205
		l8.779,7.609c0.311,0.268,0.499,0.658,0.514,1.067c0.015,0.41-0.146,0.813-0.441,1.106l-1.464,1.466
		C26.393,28.687,26.02,28.842,25.625,28.842L25.625,28.842z M12.211,6.197c-3.172,0-5.753,2.581-5.753,5.753
		s2.581,5.753,5.753,5.753s5.753-2.581,5.753-5.753S15.383,6.197,12.211,6.197z"/>
	<path fill="#1D1D1B" d="M12.93,15.828c-2.539,0-4.598-2.059-4.598-4.598c0-1.057,0.36-2.027,0.959-2.803
		c-1.09,0.842-1.795,2.157-1.795,3.64c0,2.54,2.059,4.599,4.599,4.599c1.482,0,2.798-0.705,3.64-1.795
		C14.957,15.468,13.987,15.828,12.93,15.828z"/>
</g>
</svg>
