<?xml version="1.0" encoding="utf-8"?>
<!-- Generator: Adobe Illustrator 16.0.0, SVG Export Plug-In . SVG Version: 6.00 Build 0)  -->
<!DOCTYPE svg PUBLIC "-//W3C//DTD SVG 1.0//EN" "http://www.w3.org/TR/2001/REC-SVG-20010904/DTD/svg10.dtd">
<svg version="1.0" id="Laag_1" xmlns="http://www.w3.org/2000/svg" xmlns:xlink="http://www.w3.org/1999/xlink" x="0px" y="0px"
	 width="32px" height="32px" viewBox="0 0 32 32" enable-background="new 0 0 32 32" xml:space="preserve">
<g>
	<path fill="#1D1D1B" d="M29.876,27.576L18.302,17.544c1.587-1.693,2.564-3.964,2.564-6.467c0-5.232-4.241-9.474-9.474-9.474
		s-9.474,4.242-9.474,9.474s4.242,9.474,9.474,9.474c2.183,0,4.188-0.746,5.79-1.987l10.078,11.628
		c0.227,0.263,0.614,0.276,0.859,0.031l1.786-1.787C30.152,28.19,30.139,27.803,29.876,27.576z M3.182,11.077
		c0-4.535,3.676-8.211,8.211-8.211s8.211,3.676,8.211,8.211s-3.676,8.21-8.211,8.21S3.182,15.611,3.182,11.077z"/>
	<path fill="#1D1D1B" d="M12.656,16.761c-3.837,0-6.948-3.111-6.948-6.948c0-1.596,0.544-3.063,1.449-4.236
		C5.51,6.849,4.445,8.836,4.445,11.077c0,3.837,3.11,6.948,6.948,6.948c2.241,0,4.228-1.065,5.499-2.712
		C15.718,16.217,14.252,16.761,12.656,16.761z"/>
</g>
</svg>
