<?xml version="1.0" encoding="utf-8"?>
<!-- Generator: Adobe Illustrator 20.1.0, SVG Export Plug-In . SVG Version: 6.00 Build 0)  -->
<svg version="1.1" id="Laag_1" xmlns="http://www.w3.org/2000/svg" xmlns:xlink="http://www.w3.org/1999/xlink" x="0px" y="0px"
	 viewBox="0 0 32 32" style="enable-background:new 0 0 32 32;" xml:space="preserve">
<g transform="translate(0,-952.36218)">
	<path d="M24.7,953.6c-0.6,0-1,0.5-1,1.1c0,0.6,0.5,1,1.1,1l0,0h2.4L17,965.9c-0.4,0.4-0.5,1.1,0,1.5s1.2,0.4,1.5-0.1l10.1-10.1v2.4
		c0,0.6,0.5,1.1,1,1.1s1.1-0.5,1.1-1c0,0,0,0,0,0v-4.9c0-0.6-0.5-1.1-1.1-1.1h-4.9C24.7,953.6,24.7,953.6,24.7,953.6z M2.2,956.4
		c-0.5,0.1-0.9,0.5-0.9,1.1v24.6c0,0.6,0.5,1.1,1.1,1.1h24.6c0.6,0,1.1-0.5,1.1-1.1v-19c0-0.6-0.5-1.1-1-1.1c-0.6,0-1.1,0.5-1.1,1
		c0,0,0,0,0,0V981H3.4v-22.5h17.9c0.6,0,1.1-0.5,1.1-1c0-0.6-0.5-1.1-1-1.1c0,0,0,0,0,0h-19C2.3,956.4,2.2,956.4,2.2,956.4z"/>
</g>
</svg>
