<?xml version="1.0" encoding="utf-8"?>
<!-- Generator: Adobe Illustrator 20.1.0, SVG Export Plug-In . SVG Version: 6.00 Build 0)  -->
<svg version="1.1" id="Laag_1" xmlns="http://www.w3.org/2000/svg" xmlns:xlink="http://www.w3.org/1999/xlink" x="0px" y="0px"
	 viewBox="0 0 32 32" style="enable-background:new 0 0 32 32;" xml:space="preserve">
<g>
	<rect x="1.7" y="9.5" width="28.6" height="1.2"/>
</g>
<g>
	<g>
		<path d="M27.8,29.8H4.2c-1.7,0-3.1-1.4-3.1-3.1V7.2c0-1.7,1.4-3.1,3.1-3.1h23.7c1.7,0,3.1,1.4,3.1,3.1v19.5
			C30.9,28.4,29.5,29.8,27.8,29.8z M4.2,5.4c-1,0-1.8,0.8-1.8,1.8v19.5c0,1,0.8,1.8,1.8,1.8h23.7c1,0,1.8-0.8,1.8-1.8V7.2
			c0-1-0.8-1.8-1.8-1.8H4.2z"/>
	</g>
</g>
<g>
	<path d="M15.8,23.1c-0.2,0-0.3-0.1-0.4-0.2L12,19.5c-0.2-0.2-0.2-0.6,0-0.9s0.6-0.2,0.9,0l2.9,2.9l5.6-5.6c0.2-0.2,0.6-0.2,0.9,0
		c0.2,0.2,0.2,0.6,0,0.9l-6,6C16.1,23,16,23.1,15.8,23.1z"/>
</g>
<g>
	<path d="M8.3,6.9c-0.3,0-0.6-0.3-0.6-0.6V2.8c0-0.3,0.3-0.6,0.6-0.6s0.6,0.3,0.6,0.6v3.5C8.9,6.7,8.6,6.9,8.3,6.9z"/>
</g>
<g>
	<path d="M24.9,6.9c-0.3,0-0.6-0.3-0.6-0.6V2.8c0-0.3,0.3-0.6,0.6-0.6s0.6,0.3,0.6,0.6v3.5C25.5,6.7,25.3,6.9,24.9,6.9z"/>
</g>
</svg>
