<?xml version="1.0" encoding="utf-8"?>
<!-- Generated by IcoMoon.io -->
<!DOCTYPE svg PUBLIC "-//W3C//DTD SVG 1.1//EN" "http://www.w3.org/Graphics/SVG/1.1/DTD/svg11.dtd">
<svg version="1.1" xmlns="http://www.w3.org/2000/svg" xmlns:xlink="http://www.w3.org/1999/xlink" width="32" height="32" viewBox="0 0 32 32">
<path d="M16.59 4.289c0-0.482-0.413-0.671-1.020-0.671-0.276 0-0.435 0.019-0.531 0.037v1.324h0.545c0.635 0 1.006-0.293 1.006-0.69z"></path>
<path d="M15.536 5.382h-0.497v1.569c0.117 0.018 0.29 0.024 0.504 0.024 0.621 0 1.193-0.202 1.193-0.799 0-0.562-0.545-0.794-1.2-0.794z"></path>
<path d="M1 2v6h30v-6h-30zM3.56 7.421c-0.49 0-0.904-0.122-1.118-0.244l0.152-0.409c0.187 0.098 0.552 0.22 0.958 0.22 0.573 0 1.063-0.33 1.063-0.86-0.007-0.513-0.393-0.879-1.29-0.879-0.255 0-0.455 0.024-0.621 0.042l0.29-1.904h2.145v0.451h-1.711l-0.172 1.020c0.104-0.013 0.2-0.024 0.366-0.024 0.345 0 0.689 0.067 0.965 0.213 0.352 0.177 0.642 0.519 0.642 1.019 0 0.775-0.697 1.355-1.669 1.355zM10.184 3.686h-1.904v1.367h1.759v0.439h-1.759v1.861h-0.6v-4.113h2.504v0.446zM13.656 7.353h-2.614v-4.113h2.51v0.446h-1.911v1.3h1.807v0.439h-1.806v1.483h2.014v0.445zM16.977 7.005c-0.325 0.263-0.849 0.385-1.607 0.385-0.414 0-0.731-0.024-0.931-0.049v-4.046c0.262-0.049 0.676-0.086 1.096-0.086 0.6 0 0.986 0.092 1.275 0.299 0.241 0.159 0.387 0.403 0.387 0.726 0 0.397-0.297 0.745-0.786 0.903v0.013c0.44 0.098 0.959 0.421 0.959 1.031 0 0.354-0.159 0.623-0.393 0.824z"></path>
<path d="M31 27h-30v-19h30v19zM2 26h28v-17h-28v17z"></path>
<path d="M1 27.833h29.915v0.576h-29.915v-0.576z"></path>
<path d="M1 28.75h29.915v0.576h-29.915v-0.576z"></path>
<path d="M1 29.712h29.915v0.576h-29.915v-0.576z"></path>
<path d="M2 14h28v1h-28v-1z"></path>
<path d="M2 19h28v1h-28v-1z"></path>
<path d="M8 9h1v17h-1v-17z"></path>
<path d="M15 9h1v17h-1v-17z"></path>
<path d="M22 9h1v17h-1v-17z"></path>
</svg>
