<?xml version="1.0" encoding="utf-8"?>
<!-- Generator: Adobe Illustrator 20.1.0, SVG Export Plug-In . SVG Version: 6.00 Build 0)  -->
<svg version="1.1" id="Laag_1" xmlns="http://www.w3.org/2000/svg" xmlns:xlink="http://www.w3.org/1999/xlink" x="0px" y="0px"
	 viewBox="0 0 32 32" style="enable-background:new 0 0 32 32;" xml:space="preserve">
<path d="M18.1,16L28,6.1c0.6-0.6,0.6-1.5,0-2.1c-0.6-0.6-1.5-0.6-2.1,0L16,13.9L6.1,4C5.5,3.4,4.6,3.4,4,4C3.4,4.6,3.4,5.5,4,6.1
	l9.9,9.9L4,25.9c-0.6,0.6-0.6,1.5,0,2.1c0.3,0.3,0.7,0.4,1.1,0.4s0.8-0.1,1.1-0.4l9.9-9.9l9.9,9.9c0.3,0.3,0.7,0.4,1.1,0.4
	s0.8-0.1,1.1-0.4c0.6-0.6,0.6-1.5,0-2.1L18.1,16z"/>
</svg>
