<?xml version="1.0" encoding="utf-8"?>
<!-- Generated by IcoMoon.io -->
<!DOCTYPE svg PUBLIC "-//W3C//DTD SVG 1.1//EN" "http://www.w3.org/Graphics/SVG/1.1/DTD/svg11.dtd">
<svg version="1.1" xmlns="http://www.w3.org/2000/svg" xmlns:xlink="http://www.w3.org/1999/xlink" width="32" height="32" viewBox="0 0 32 32">
<path d="M13 9.5h10v1h-10v-1z"></path>
<path d="M13 13.5h10v1h-10v-1z"></path>
<path d="M13 17.5h10v1h-10v-1z"></path>
<path d="M13 21.5h10v1h-10v-1z"></path>
<path d="M13 24.5h-3l-1-19h-1l1 19.813 3.61 4.5 0.39-0.313h1v-5z"></path>
<path d="M21.809 4l-0.347-0.692c-0.099-0.236-1.003-2.308-2.441-2.308h-6.042c-1.438 0-2.342 2.072-2.426 2.276l-0.362 0.724h-2.191v2h17.5v23h-19v-25h-2v27h23v-27h-5.691zM12.418 4c0.243-0.517 0.541-0.881 0.675-1l5.812-0.001c0.141 0.123 0.451 0.506 0.678 1.001h-7.165z"></path>
</svg>
