<?xml version="1.0" encoding="utf-8"?>
<!-- Generated by IcoMoon.io -->
<!DOCTYPE svg PUBLIC "-//W3C//DTD SVG 1.1//EN" "http://www.w3.org/Graphics/SVG/1.1/DTD/svg11.dtd">
<svg version="1.1" xmlns="http://www.w3.org/2000/svg" xmlns:xlink="http://www.w3.org/1999/xlink" width="32" height="32" viewBox="0 0 32 32">
<path d="M18 0c-3.866 0-7 3.134-7 7v15c0 2.762 2.238 5 5 5s5-2.238 5-5v-15h-3v15c0 1.103-0.897 2-2 2s-2-0.897-2-2v-15c0-2.206 1.794-4 4-4s4 1.794 4 4v16c0 3.309-2.691 6-6 6s-6-2.691-6-6v-21h-3v21c0 4.972 4.029 9 9 9 4.969 0 9-4.028 9-9v-16c0-3.866-3.135-7-7-7z"></path>
</svg>
