<?xml version="1.0" encoding="utf-8"?>
<!-- Generated by IcoMoon.io -->
<!DOCTYPE svg PUBLIC "-//W3C//DTD SVG 1.1//EN" "http://www.w3.org/Graphics/SVG/1.1/DTD/svg11.dtd">
<svg version="1.1" xmlns="http://www.w3.org/2000/svg" xmlns:xlink="http://www.w3.org/1999/xlink" width="32" height="32" viewBox="0 0 32 32">
<path d="M25.625 28.842c-0.43 0-0.839-0.188-1.122-0.518l-7.7-8.884c-1.382 0.854-2.952 1.302-4.593 1.302-4.848 0-8.792-3.944-8.792-8.792s3.944-8.792 8.792-8.792c4.848 0 8.792 3.944 8.792 8.792 0 1.887-0.603 3.7-1.714 5.205l8.779 7.609c0.311 0.268 0.499 0.658 0.514 1.067 0.015 0.41-0.146 0.813-0.441 1.106l-1.464 1.466c-0.283 0.284-0.656 0.439-1.051 0.439v0zM12.211 6.197c-3.172 0-5.753 2.581-5.753 5.753s2.581 5.753 5.753 5.753 5.753-2.581 5.753-5.753-2.581-5.753-5.753-5.753z"></path>
<path d="M12.93 15.828c-2.539 0-4.598-2.059-4.598-4.598 0-1.057 0.36-2.027 0.959-2.803-1.090 0.842-1.795 2.157-1.795 3.64 0 2.54 2.059 4.599 4.599 4.599 1.482 0 2.798-0.705 3.64-1.795-0.778 0.597-1.748 0.957-2.805 0.957z"></path>
</svg>
