<?xml version="1.0" encoding="utf-8"?>
<!-- Generator: Adobe Illustrator 20.1.0, SVG Export Plug-In . SVG Version: 6.00 Build 0)  -->
<svg version="1.1" id="Laag_1" xmlns="http://www.w3.org/2000/svg" xmlns:xlink="http://www.w3.org/1999/xlink" x="0px" y="0px"
	 viewBox="0 0 32 32" style="enable-background:new 0 0 32 32;" xml:space="preserve">
<g transform="translate(0,-952.36218)">
	<path d="M2.2,958.2c-0.3,0-0.6,0.3-0.6,0.7v14.4c0,0.4,0.3,0.7,0.7,0.7h20l4.4,4.4c0.3,0.3,0.7,0.3,0.9,0c0.1-0.1,0.2-0.3,0.2-0.5
		v-3.9h2c0.4,0,0.7-0.3,0.7-0.7v-14.4c0-0.4-0.3-0.7-0.7-0.7H2.2C2.3,958.2,2.2,958.2,2.2,958.2z M2.9,959.5h26.1v13.1h-2
		c-0.4,0-0.7,0.3-0.7,0.7v3l-3.5-3.5c-0.1-0.1-0.3-0.2-0.5-0.2H2.9V959.5z M5.5,961.5c-0.4,0-0.6,0.3-0.6,0.7s0.3,0.6,0.7,0.6h20.9
		c0.4,0,0.7-0.3,0.7-0.6c0-0.4-0.3-0.7-0.6-0.7c0,0,0,0,0,0H5.5C5.5,961.5,5.5,961.5,5.5,961.5z M5.5,965.4c-0.4,0-0.6,0.3-0.6,0.7
		s0.3,0.6,0.7,0.6h20.9c0.4,0,0.7-0.3,0.7-0.6c0-0.4-0.3-0.7-0.6-0.7c0,0,0,0,0,0H5.5C5.5,965.4,5.5,965.4,5.5,965.4z M5.5,969.3
		c-0.4,0-0.6,0.3-0.6,0.7s0.3,0.6,0.7,0.6h20.9c0.4,0,0.7-0.3,0.7-0.6c0-0.4-0.3-0.7-0.6-0.7c0,0,0,0,0,0H5.5
		C5.5,969.3,5.5,969.3,5.5,969.3z"/>
</g>
</svg>
