<?xml version="1.0" encoding="utf-8"?>
<!-- Generator: Adobe Illustrator 20.1.0, SVG Export Plug-In . SVG Version: 6.00 Build 0)  -->
<svg version="1.1" id="Laag_1" xmlns="http://www.w3.org/2000/svg" xmlns:xlink="http://www.w3.org/1999/xlink" x="0px" y="0px"
	 viewBox="0 0 32 32" style="enable-background:new 0 0 32 32;" xml:space="preserve">
<g>
	<path d="M27.1,11.2l-2.4-2.4c-0.1-0.1-0.4-0.1-0.5,0h0c-0.1,0.1-0.1,0.4,0,0.5l0,0l-1.1,1.1c-0.1,0.1-0.1,0.4,0,0.5l0.2,0.2
		L23,11.5c-0.1,0.1-0.1,0.3-0.1,0.4c-1.6-1.3-3.5-2.2-5.7-2.5V8.6c1.5-0.5,2.5-1.9,2.5-3.5c0-2-1.7-3.7-3.7-3.7
		c-2,0-3.7,1.7-3.7,3.7c0,1.6,1.1,3,2.5,3.5v0.8c-2.3,0.2-4.3,1.2-6,2.6c0.1-0.1,0.1-0.4,0-0.5l-0.4-0.4l0.2-0.2
		c0.1-0.1,0.1-0.4,0-0.5L7.7,9.3l0,0c0.1-0.1,0.1-0.4,0-0.5c-0.1-0.1-0.4-0.1-0.5,0l-2.4,2.4c-0.1,0.1-0.1,0.4,0,0.5l0,0
		c0.1,0.1,0.4,0.1,0.5,0l0,0l1.1,1.1c0.1,0.1,0.4,0.1,0.5,0l0.2-0.2l0.4,0.4c0.1,0.1,0.3,0.1,0.5,0c-1.7,1.9-2.7,4.3-2.7,7
		c0,5.9,4.8,10.6,10.6,10.6c5.9,0,10.6-4.8,10.6-10.6c0-2.7-1-5.1-2.6-7c0.1,0.1,0.3,0,0.4-0.1l0.4-0.4l0.2,0.2
		c0.1,0.1,0.4,0.1,0.5,0l1.1-1.1l0,0c0.1,0.1,0.4,0.1,0.5,0l0,0C27.3,11.5,27.3,11.3,27.1,11.2z M13,5.1c0-1.8,1.4-3.2,3.2-3.2
		c1.8,0,3.2,1.4,3.2,3.2c0,1.3-0.8,2.5-2,3V6.7h0.5c0.1,0,0.2-0.1,0.2-0.2V4.2C18.1,4.1,18,4,17.8,4h-3.4c-0.1,0-0.2,0.1-0.2,0.2
		v2.2c0,0.1,0.1,0.2,0.2,0.2H15V8C13.8,7.6,13,6.4,13,5.1z M16,29.5c-5.2,0-9.5-4.3-9.5-9.5c0-5.2,4.3-9.5,9.5-9.5
		c5.2,0,9.5,4.3,9.5,9.5C25.6,25.2,21.3,29.5,16,29.5z"/>
	<path d="M16,11.1c-4.9,0-8.9,4-8.9,8.9c0,4.9,4,8.9,8.9,8.9s8.9-4,8.9-8.9C24.9,15.1,20.9,11.1,16,11.1z M23.2,24.2L16,20l0-8.3
		c0,0,0,0,0,0c4.6,0,8.3,3.7,8.3,8.3C24.3,21.5,23.9,22.9,23.2,24.2z"/>
</g>
</svg>
