<?xml version="1.0" encoding="utf-8"?>
<!-- Generator: Adobe Illustrator 16.0.0, SVG Export Plug-In . SVG Version: 6.00 Build 0)  -->
<!DOCTYPE svg PUBLIC "-//W3C//DTD SVG 1.0//EN" "http://www.w3.org/TR/2001/REC-SVG-20010904/DTD/svg10.dtd">
<svg version="1.0" id="Laag_1" xmlns="http://www.w3.org/2000/svg" xmlns:xlink="http://www.w3.org/1999/xlink" x="0px" y="0px"
	 width="32px" height="32px" viewBox="0 0 32 32" enable-background="new 0 0 32 32" xml:space="preserve">
<g>
	<rect x="1" y="2" fill="#1D1D1B" width="30" height="6"/>
</g>
<g>
	<rect x="2.152" y="3.019" fill="none" width="20.709" height="5.088"/>
</g>
<g enable-background="new    ">
	<path fill="#FFFFFF" d="M5.138,3.838h-1.71l-0.172,1.02c0.104-0.013,0.2-0.024,0.366-0.024c0.345,0,0.689,0.067,0.965,0.213
		c0.352,0.177,0.642,0.519,0.642,1.019c0,0.775-0.697,1.355-1.669,1.355c-0.49,0-0.904-0.122-1.118-0.244l0.152-0.409
		c0.186,0.098,0.552,0.22,0.958,0.22c0.573,0,1.063-0.33,1.063-0.86c-0.007-0.513-0.393-0.879-1.29-0.879
		c-0.255,0-0.455,0.024-0.621,0.042l0.29-1.904h2.145V3.838z"/>
	<path fill="#FFFFFF" d="M7.68,3.24h2.504v0.446H8.28v1.367h1.759v0.439H8.28v1.861h-0.6V3.24z"/>
	<path fill="#FFFFFF" d="M13.449,5.425h-1.807v1.483h2.014v0.445h-2.614V3.24h2.51v0.446h-1.911v1.3h1.807V5.425z"/>
	<path fill="#FFFFFF" d="M14.439,3.295c0.262-0.049,0.676-0.086,1.096-0.086c0.6,0,0.986,0.092,1.275,0.299
		c0.242,0.159,0.387,0.403,0.387,0.726c0,0.397-0.297,0.745-0.786,0.903V5.15c0.441,0.098,0.959,0.421,0.959,1.031
		c0,0.354-0.159,0.623-0.394,0.824C16.652,7.268,16.128,7.39,15.37,7.39c-0.414,0-0.731-0.024-0.931-0.049V3.295z M15.039,4.979
		h0.545c0.635,0,1.006-0.293,1.006-0.69c0-0.482-0.413-0.671-1.02-0.671c-0.276,0-0.435,0.019-0.531,0.037V4.979z M15.039,6.951
		c0.117,0.018,0.29,0.024,0.504,0.024c0.621,0,1.193-0.202,1.193-0.799c0-0.562-0.545-0.794-1.2-0.794h-0.497V6.951z"/>
</g>
<g>
	<path fill="#1D1D1B" d="M31,27H1V8h30V27z M2,26h28V9H2V26z"/>
</g>
<g>
	<rect x="1" y="27.833" fill="#1D1D1B" width="29.915" height="0.576"/>
</g>
<g>
	<rect x="1" y="28.75" fill="#1D1D1B" width="29.915" height="0.576"/>
</g>
<g>
	<rect x="1" y="29.712" fill="#1D1D1B" width="29.915" height="0.576"/>
</g>
<g>
	<rect x="2" y="14" fill="#1D1D1B" width="28" height="1"/>
</g>
<g>
	<rect x="2" y="19" fill="#1D1D1B" width="28" height="1"/>
</g>
<g>
	<rect x="8" y="9" fill="#1D1D1B" width="1" height="17"/>
</g>
<g>
	<rect x="15" y="9" fill="#1D1D1B" width="1" height="17"/>
</g>
<g>
	<rect x="22" y="9" fill="#1D1D1B" width="1" height="17"/>
</g>
</svg>
