<?xml version="1.0" encoding="utf-8"?>
<!-- Generator: Adobe Illustrator 16.0.0, SVG Export Plug-In . SVG Version: 6.00 Build 0)  -->
<!DOCTYPE svg PUBLIC "-//W3C//DTD SVG 1.0//EN" "http://www.w3.org/TR/2001/REC-SVG-20010904/DTD/svg10.dtd">
<svg version="1.0" id="Laag_1" xmlns="http://www.w3.org/2000/svg" xmlns:xlink="http://www.w3.org/1999/xlink" x="0px" y="0px"
	 width="32px" height="32px" viewBox="0 0 32 32" enable-background="new 0 0 32 32" xml:space="preserve">
<g>
	<rect x="6" y="5" fill="#1D1D1B" width="20" height="26"/>
</g>
<g>
	<path fill="#1D1D1B" d="M21,4c0,0-0.833-2-1.979-2C17.875,2,16,2,16,2s-1.875,0-3.021,0S11,4,11,4l-1,2h6h6L21,4z M11.618,5
		l0.276-0.553c0.33-0.776,0.871-1.432,1.085-1.447h6.042c0.216,0.016,0.767,0.69,1.056,1.384L20.384,5H11.618z"/>
</g>
<g>
	<rect x="7" y="6" fill="#FFFFFF" width="18" height="24"/>
</g>
<g>
	<rect x="12" y="10" fill="#1D1D1B" width="10" height="1"/>
</g>
<g>
	<rect x="12" y="14" fill="#1D1D1B" width="10" height="1"/>
</g>
<g>
	<rect x="12" y="18" fill="#1D1D1B" width="10" height="1"/>
</g>
<g>
	<rect x="12" y="22" fill="#1D1D1B" width="10" height="1"/>
</g>
<polygon fill="#1D1D1B" points="12,25 9,25 9,6 8,6 8,25.813 11.61,30.313 12,30 13,30 13,25 "/>
</svg>
