<?xml version="1.0" encoding="utf-8"?>
<!-- Generator: Adobe Illustrator 16.0.0, SVG Export Plug-In . SVG Version: 6.00 Build 0)  -->
<!DOCTYPE svg PUBLIC "-//W3C//DTD SVG 1.0//EN" "http://www.w3.org/TR/2001/REC-SVG-20010904/DTD/svg10.dtd">
<svg version="1.0" id="Laag_1" xmlns="http://www.w3.org/2000/svg" xmlns:xlink="http://www.w3.org/1999/xlink" x="0px" y="0px"
	 width="32px" height="32px" viewBox="0 0 32 32" enable-background="new 0 0 32 32" xml:space="preserve">
<path d="M18,0c-3.866,0-7,3.134-7,7v15c0,2.762,2.238,5,5,5s5-2.238,5-5V7h-3v15c0,1.103-0.897,2-2,2s-2-0.897-2-2V7
	c0-2.206,1.794-4,4-4c2.206,0,4,1.794,4,4v16c0,3.309-2.691,6-6,6s-6-2.691-6-6V2H7v21c0,4.972,4.029,9,9,9c4.969,0,9-4.028,9-9V7
	C25,3.134,21.865,0,18,0z"/>
</svg>
